<svg id="Layer_1" data-name="Layer 1" xmlns="http://www.w3.org/2000/svg" viewBox="0 0 91 22"><defs><style>.cls-1{fill:#6dc7d1;}.cls-2{fill:#2c4f48;}</style></defs><title>Cover Logo SVG</title><path class="cls-1" d="M13.31,14.06,13.15,14a.25.25,0,0,0-.36.08,5.21,5.21,0,0,1-4.54,2.42A5.28,5.28,0,0,1,3,11,5.28,5.28,0,0,1,8.25,5.55a5,5,0,0,1,4.48,2.37.23.23,0,0,0,.35.08l.2-.11a.23.23,0,0,0,.06-.34A5.67,5.67,0,0,0,8.25,4.87,6,6,0,0,0,2.3,11a6,6,0,0,0,6,6.13,5.81,5.81,0,0,0,5.11-2.71A.24.24,0,0,0,13.31,14.06Z"/><path class="cls-1" d="M21.43,4.87A6,6,0,0,0,15.3,11a6.14,6.14,0,0,0,12.28,0A6.05,6.05,0,0,0,21.43,4.87Zm0,11.58A5.36,5.36,0,0,1,16,11,5.46,5.46,0,0,1,26.9,11,5.37,5.37,0,0,1,21.43,16.45Z"/><path class="cls-1" d="M39.11,5.07h-.22a.29.29,0,0,0-.29.19L34.26,15.78c0,.13-.18.13-.23,0L29.68,5.26a.28.28,0,0,0-.29-.19h-.21c-.18,0-.26.09-.19.27l4.72,11.4a.28.28,0,0,0,.29.19h.27a.3.3,0,0,0,.3-.19L39.3,5.34C39.36,5.16,39.28,5.07,39.11,5.07Z"/><path class="cls-1" d="M57.33,12.57a3.42,3.42,0,0,0,3.16-3.69,3.63,3.63,0,0,0-3.68-3.81H52a.23.23,0,0,0-.24.24V16.69a.23.23,0,0,0,.24.24h.16a.23.23,0,0,0,.25-.24V12.77a.15.15,0,0,1,.16-.16h3.6c.08,0,.15,0,.19.09l2.83,4.09a.33.33,0,0,0,.3.14h.25c.19,0,.26-.11.14-.29l-2.69-3.87C57.17,12.67,57.2,12.59,57.33,12.57ZM56.66,12h-4a.16.16,0,0,1-.16-.17V5.88a.16.16,0,0,1,.16-.17h4a3,3,0,0,1,3.15,3.15A2.88,2.88,0,0,1,56.66,12Z"/><path class="cls-2" d="M67.62,10.68c-1.83-.36-4.34-.69-4.34-2.58s2-2.55,3.23-2.55a5.62,5.62,0,0,1,3.08.83.23.23,0,0,0,.34-.07l.13-.19A.23.23,0,0,0,70,5.78a6.26,6.26,0,0,0-3.37-.91c-1.78,0-4,.81-4,3.28s2.66,2.8,4.2,3.06c1.89.33,3.73.94,3.73,2.69S69,16.45,67.07,16.45a6.87,6.87,0,0,1-3.68-1.09.23.23,0,0,0-.34.08l-.13.2A.21.21,0,0,0,63,16a7.28,7.28,0,0,0,4.15,1.17c2.24,0,4.07-.92,4.07-3.21S69,10.94,67.62,10.68Z"/><rect class="cls-2" x="73.96" y="5.07" width="0.65" height="11.87" rx="0.24"/><path class="cls-2" d="M88.67,16.64,83.35,5.23a.28.28,0,0,0-.27-.18h-.31a.28.28,0,0,0-.28.18L77.17,16.64c-.08.18,0,.29.18.29h.26a.29.29,0,0,0,.28-.17l1.22-2.63.45-1.08h0s0,0,0,0l.5-1.06,0-.06L82.8,6.07a.12.12,0,0,1,.23,0l3.17,6.8.07.14a.43.43,0,0,0,0,.05l.43,1L88,16.76a.27.27,0,0,0,.27.17h.26C88.67,16.93,88.75,16.82,88.67,16.64Z"/><rect class="cls-1" x="41.93" y="5.05" width="7.44" height="0.67" rx="0.09"/><rect class="cls-1" x="41.93" y="10.66" width="6.68" height="0.67" rx="0.09"/><rect class="cls-1" x="41.93" y="16.27" width="7.44" height="0.67" rx="0.09"/></svg>