<svg width="75" height="75" viewBox="0 0 75 75" fill="none" xmlns="http://www.w3.org/2000/svg">
<g clip-path="url(#clip0)">
<path d="M10.0832 43.8995C2.14233 35.6515 -2.34279 28.1927 11.0622 19.7141C24.3206 12.4834 37.8199 1.30262 45.7608 9.55062C51.8439 15.869 44.1488 23.2776 33.6555 33.3803C34.154 59.1003 18.0241 52.1475 10.0832 43.8995Z" fill="#F1FAF3"/>
<g clip-path="url(#clip1)">
<path d="M53.3352 44.8832C52.8813 44.8832 52.5132 45.2511 52.5132 45.7052V53.1637C52.5132 53.4108 52.3122 53.6118 52.0652 53.6118H17.9716C16.9697 53.615 15.8125 53.9569 14.9213 54.7407V18.4235C14.9213 17.9695 14.5533 17.6016 14.0993 17.6016C13.6454 17.6016 13.2773 17.9695 13.2773 18.4235V58.306C13.2773 60.8943 15.3831 63.0002 17.9715 63.0002H50.929C51.402 63.0002 51.824 62.7183 52.0039 62.2819C52.1852 61.842 52.0836 61.3406 51.7449 61.0043C51.0206 60.2846 50.6217 59.3265 50.6217 58.306C50.6217 57.0946 51.1929 55.9689 52.16 55.2509C53.2693 55.2007 54.157 54.2851 54.157 53.1637V45.7052C54.1571 45.251 53.7891 44.8832 53.3352 44.8832ZM40.1859 55.2557H42.7583V57.6243L42.2532 57.0495C42.0559 56.825 41.7712 56.6961 41.4723 56.6961H41.4722C41.1732 56.6961 40.8886 56.8247 40.6909 57.0496L40.1859 57.6243V55.2557ZM49.9103 61.3562H17.9716C16.2896 61.3562 14.9213 59.9879 14.9213 58.3059C14.9213 56.6239 16.2896 55.2556 17.9716 55.2556H38.542V58.9052C38.542 59.393 38.8369 59.8195 39.2935 59.9916C39.6123 60.1291 40.1953 60.0787 40.5752 59.6717L41.4722 58.6509L42.3692 59.6717C42.6912 60.0382 43.1943 60.1636 43.6507 59.9916C44.1073 59.8195 44.4022 59.393 44.4022 58.9052V55.2556H49.9104C49.3105 56.1425 48.9779 57.1993 48.9779 58.3059C48.9779 59.4098 49.3039 60.4628 49.9103 61.3562Z" fill="black"/>
<path d="M52.0671 7.0127H17.2761C15.0723 7.0127 13.2793 8.80571 13.2793 11.0095V14.3786C13.2793 14.8326 13.6473 15.2006 14.1013 15.2006C14.5552 15.2006 14.9233 14.8326 14.9233 14.3786V11.0095C14.9233 9.71211 15.9788 8.65655 17.2763 8.65655H52.0671C52.3141 8.65655 52.5151 8.85754 52.5151 9.10456V41.6294C52.5151 42.0834 52.883 42.4514 53.3371 42.4514C53.791 42.4514 54.159 42.0834 54.159 41.6294V9.10456C54.1589 7.95103 53.2205 7.0127 52.0671 7.0127V7.0127Z" fill="black"/>
<path d="M24.751 36.2402C27.1595 37.6084 30.3437 38.3618 33.7175 38.3618C37.0913 38.3618 40.2757 37.6084 42.6841 36.2402C45.239 34.789 46.646 32.8081 46.646 30.6626C46.646 28.5172 45.239 26.5362 42.6841 25.085C40.2757 23.7168 37.0914 22.9634 33.7175 22.9634C31.1586 22.9634 28.6894 23.3987 26.5767 24.2225C26.1538 24.3873 25.9446 24.8639 26.1095 25.2868C26.2744 25.7097 26.7508 25.9193 27.1739 25.754C29.0981 25.0037 31.3609 24.6072 33.7175 24.6072C39.8343 24.6072 45.002 27.3802 45.002 30.6626C45.002 33.945 39.8343 36.718 33.7175 36.718C27.6007 36.718 22.433 33.945 22.433 30.6626C22.433 29.3768 23.2301 28.3536 23.8986 27.7219C24.2286 27.4101 24.2433 26.8898 23.9315 26.5599C23.6198 26.2302 23.0995 26.2152 22.7695 26.5271C21.4739 27.7515 20.7891 29.1815 20.7891 30.6627C20.7892 32.8081 22.1962 34.7889 24.751 36.2402Z" fill="black"/>
<path d="M38.8897 29.5578C38.8897 29.1038 38.5217 28.7358 38.0677 28.7358H29.365C28.911 28.7358 28.543 29.1038 28.543 29.5578C28.543 30.0118 28.9109 30.3798 29.365 30.3798H38.0677C38.5216 30.3798 38.8897 30.0118 38.8897 29.5578Z" fill="black"/>
<path d="M22.0622 40.5322C21.6083 40.5322 21.2402 40.9002 21.2402 41.3542C21.2402 41.8082 21.6082 42.1762 22.0622 42.1762H45.3733C45.8273 42.1762 46.1953 41.8082 46.1953 41.3542C46.1953 40.9002 45.8274 40.5322 45.3733 40.5322H22.0622Z" fill="black"/>
<path d="M31.5427 32.3257C31.0888 32.3257 30.7207 32.6936 30.7207 33.1477C30.7207 33.6017 31.0887 33.9697 31.5427 33.9697H35.8941C36.348 33.9697 36.716 33.6017 36.716 33.1477C36.716 32.6936 36.3481 32.3257 35.8941 32.3257H31.5427Z" fill="black"/>
<path d="M26.319 13.0146C26.7729 13.0146 27.141 12.6466 27.141 12.1926C27.141 11.7386 26.773 11.3706 26.319 11.3706H22.0622C21.6083 11.3706 21.2402 11.7386 21.2402 12.1926C21.2402 12.6466 21.6082 13.0146 22.0622 13.0146H26.319Z" fill="black"/>
<path d="M45.3737 13.0146C45.8276 13.0146 46.1957 12.6466 46.1957 12.1926C46.1957 11.7386 45.8277 11.3706 45.3737 11.3706H41.1169C40.663 11.3706 40.2949 11.7386 40.2949 12.1926C40.2949 12.6466 40.6629 13.0146 41.1169 13.0146H45.3737Z" fill="black"/>
</g>
<circle cx="64.5865" cy="50.3458" r="2.4674" fill="#FEBC02"/>
</g>
<defs>
<clipPath id="clip0">
<rect width="75" height="75" fill="white"/>
</clipPath>
<clipPath id="clip1">
<rect width="55.9872" height="55.9872" fill="white" transform="translate(5.72266 7.0127)"/>
</clipPath>
</defs>
</svg>
